<svg xmlns="http://www.w3.org/2000/svg" width="760" height="320" viewBox="0 0 760 320" role="img" aria-label="Aegrail logo">
    
    <defs>
      <linearGradient id="gShield" x1="73" y1="65" x2="435" y2="452" gradientUnits="userSpaceOnUse">
        <stop offset="0" stop-color="#00E5FF"/>
        <stop offset="0.45" stop-color="#126DFF"/>
        <stop offset="1" stop-color="#0F1E3A"/>
      </linearGradient>
      <linearGradient id="gA" x1="160" y1="130" x2="365" y2="342" gradientUnits="userSpaceOnUse">
        <stop offset="0" stop-color="#00E5FF"/>
        <stop offset="0.55" stop-color="#00BFAE"/>
        <stop offset="1" stop-color="#126DFF"/>
      </linearGradient>
      <linearGradient id="gTrail" x1="126" y1="346" x2="386" y2="178" gradientUnits="userSpaceOnUse">
        <stop offset="0" stop-color="#00E5FF"/>
        <stop offset="0.55" stop-color="#00BFAE"/>
        <stop offset="1" stop-color="#78FF82"/>
      </linearGradient>
      <filter id="softGlow" x="-30%" y="-30%" width="160%" height="160%">
        <feGaussianBlur stdDeviation="5" result="blur"/>
        <feColorMatrix in="blur" type="matrix" values="0 0 0 0 0  0 0 0 0 0.85  0 0 0 0 1  0 0 0 0.45 0" result="glow"/>
        <feMerge><feMergeNode in="glow"/><feMergeNode in="SourceGraphic"/></feMerge>
      </filter>
      <clipPath id="shieldClip"><path d="M256 28 L421 94 V246 C421 360 352 432 256 484 C160 432 91 360 91 246 V94 Z"/></clipPath>
    </defs>
    
    
  <rect x="0" y="0" width="760" height="320" rx="24" fill="#0B0F1A"/>
  <rect x="1" y="1" width="758" height="318" rx="24" fill="none" stroke="#00E5FF" stroke-opacity="0.28" stroke-width="2"/>
  <circle cx="42" cy="42" r="9" fill="#FF4D5E"/>
  <circle cx="70" cy="42" r="9" fill="#FFB547"/>
  <circle cx="98" cy="42" r="9" fill="#78FF82"/>
  <text x="58" y="118" font-family="IBM Plex Mono, JetBrains Mono, Consolas, monospace" font-size="34" fill="#FFFFFF"><tspan fill="#00E5FF">&gt;_</tspan> aegrail scan</text>
  <text x="58" y="182" font-family="IBM Plex Mono, JetBrains Mono, Consolas, monospace" font-size="34" fill="#FFFFFF"><tspan fill="#00E5FF">&gt;_</tspan> aegrail diff</text>
  <text x="58" y="246" font-family="IBM Plex Mono, JetBrains Mono, Consolas, monospace" font-size="34" fill="#FFFFFF"><tspan fill="#00E5FF">&gt;_</tspan> aegrail report</text>

    </svg>